<?xml version="1.0" encoding="iso-8859-1"?>
<!-- Generator: Adobe Illustrator 19.0.0, SVG Export Plug-In . SVG Version: 6.00 Build 0)  -->
<svg version="1.1" id="Layer_1" xmlns="http://www.w3.org/2000/svg" xmlns:xlink="http://www.w3.org/1999/xlink" x="0px" y="0px"
	 viewBox="0 0 512 512" style="enable-background:new 0 0 512 512;" xml:space="preserve">
<path style="fill:#E0E0E0;" d="M300.138,282.483h-88.276V0c54.731,32.662,88.276,91.807,88.276,156.248V282.483z"/>
<path style="fill:#A3AAAF;" d="M264.828,256c-5.297,0-8.828-3.531-8.828-8.828v-88.276c0-22.952-6.179-46.786-16.772-66.207
	c-1.766-4.414-0.883-9.71,3.531-12.359c4.414-1.766,9.71-0.883,12.359,3.531c11.476,22.952,18.538,49.434,18.538,75.034v88.276
	C273.655,252.469,270.124,256,264.828,256"/>
<path style="fill:#CE8D5B;" d="M256,512L256,512c-24.717,0-44.138-19.421-44.138-44.138v-90.041
	c0-33.545-8.828-66.207-26.483-95.338h141.241c-17.655,29.131-26.483,61.793-26.483,95.338v90.041
	C300.138,492.579,280.717,512,256,512"/>
<g>
	<path style="fill:#844414;" d="M238.345,414.897h-26.483v17.655h26.483c5.297,0,8.828-3.531,8.828-8.828
		C247.172,418.428,243.641,414.897,238.345,414.897"/>
	<path style="fill:#844414;" d="M247.172,459.034c0-5.297-3.531-8.828-8.828-8.828h-26.483v17.655h26.483
		C243.641,467.862,247.172,464.331,247.172,459.034"/>
</g>
<g>
</g>
<g>
</g>
<g>
</g>
<g>
</g>
<g>
</g>
<g>
</g>
<g>
</g>
<g>
</g>
<g>
</g>
<g>
</g>
<g>
</g>
<g>
</g>
<g>
</g>
<g>
</g>
<g>
</g>
</svg>
